<?xml version="1.0" encoding="utf-8"?>
<!-- Uploaded to: SVG Repo, www.svgrepo.com, Generator: SVG Repo Mixer Tools -->
<svg width="800px" height="800px" viewBox="0 0 1024 1024" class="icon"  version="1.1" xmlns="http://www.w3.org/2000/svg"><path d="M305.736254 461.47945l-16.264419-83.009455h57.913002l9.463772 166.017886z" fill="#67DDE0" /><path d="M368.990865 583.132385L296.346201 465.152127l-18.930616-96.60358h79.34497l12.23031 214.583838z m-53.864559-125.325611l29.580047 48.03558L338.010143 388.393492h-36.484106l13.600269 69.413282z" fill="#4D5152" /><path d="M364.712048 513.526613l-7.863439-253.595917h68.805094v274.727886z" fill="#67DDE0" /><path d="M435.578223 548.605948l-80.57056-27.94183-8.396883-270.653847h88.967443v298.595677z m-61.160766-42.21684l41.314797 14.327228V269.85624h-48.650935l7.336138 236.532868z" fill="#4D5152" /><path d="M419.756123 416.804262L402.952117 117.846129l85.6091 29.882093v406.439471l-68.805094-13.761019z" fill="#67DDE0" /><path d="M498.48369 566.271042l-88.653111-17.728575V417.082759l-17.621066-313.495257 106.275201 37.095366v425.588174z m-68.806118-33.999136l48.961172 9.792439V154.772553l-64.945046-22.665749 15.983874 284.699506v115.465596z" fill="#4D5152" /><path d="M488.561217 427.372806V210.706385l68.805094 14.280129v312.993552l-68.805094-11.080487z" fill="#67DDE0" /><path d="M567.290831 549.627786l-88.65311-14.273986V198.509863l88.65311 18.397171v332.720752z m-68.807141-31.183452l48.961172 7.888013v-293.271474l-48.961172-10.160014v295.543475z" fill="#4D5152" /><path d="M594.717648 427.372806V210.706385h83.32174l-14.516647 327.273681-68.805093-11.080487z" fill="#67DDE0" /><path d="M672.940439 549.54997l-88.14424-14.19617V200.782888h103.615147l-15.470907 348.767082z m-68.298271-31.105636l49.459805 7.969924 13.561361-305.786424h-63.021166v297.8165z" fill="#4D5152" /><path d="M640.702385 504.404819l13.614603-218.554466h82.531301l-18.48625 327.274705-77.659654-9.193466z" fill="#67DDE0" /><path d="M727.677348 624.219879l-96.899483-11.468539 0.019454-108.963924 14.19617-227.86056h102.354744l-19.670885 348.293023z m-77.053514-29.104964l58.428016 6.914298 17.297519-306.256388h-62.711952l-13.014607 208.940183v90.401907z" fill="#4D5152" /><path d="M513.134465 467.262355V328.73579h68.805094v209.244276l-68.805094-7.084262z" fill="#67DDE0" /><path d="M591.861008 548.978642l-88.647992-9.127937V318.812293h88.647992v230.166349z m-68.802023-27.036715l48.956053 5.038539v-188.323228h-48.956053v183.284689z" fill="#4D5152" /><path d="M547.537012 568.562497V430.036956h68.805094v209.244277l-68.805094-7.085287z" fill="#67DDE0" /><path d="M626.266626 650.277761l-88.653111-9.127938V420.115507h88.653111v230.162254z m-68.807141-27.036716l48.961172 5.03854V439.961476h-48.961172v183.279569z" fill="#4D5152" /><path d="M444.329371 550.063961V426.536292h68.805094v186.588766l-68.805094-6.317372z" fill="#67DDE0" /><path d="M523.058985 624.001792l-88.65311-8.139889V416.612795h88.65311v207.388997z m-68.807141-26.251396l48.961172 4.49588v-165.787511h-48.961172v161.291631z" fill="#4D5152" /><path d="M221.395748 452.397587s58.395252 445.931752 69.977442 445.931752 370.64444 23.165405 443.036204 0c0 0 78.856576-370.251268 70.169933-436.850913l-81.752124-9.080839s-173.740029 188.217768-416.97525 0h-84.456205z" fill="#FFB957" /><path d="M591.487289 918.600221c-69.756283 0-162.649303-3.110564-279.58315-9.326572-11.686627-0.620475-18.987953-1.017742-20.528901-1.021837-11.526901 0-15.839506 0-49.154687-231.474875-15.873294-110.26733-30.519974-221.973219-30.665365-223.08823l-1.468252-11.211544h99.157151l2.679508 2.073367c232.904219 180.236582 396.754539 8.503368 403.620714 1.109892l3.401347-3.667557 94.466732 10.484586 1.007503 7.718047c8.803366 67.512951-67.06756 425.011727-70.304062 440.202089l-1.196922 5.630346-5.484954 1.753915c-22.548003 7.213272-70.831363 10.818372-145.946662 10.818373zM297.523669 888.656694c3.701345 0.17918 8.920089 0.455629 15.437119 0.799655 278.483498 14.80743 379.040299 9.104388 412.986194 0.925592 9.627594-45.806582 71.723167-344.600893 69.359016-419.948614l-68.850145-7.645351c-26.783816 25.713856-197.151167 172.828771-423.975555-0.464844h-69.770617c20.310813 154.241157 53.670021 389.911914 64.813988 426.333562z" fill="#4D5152" /><path d="M350.576287 656.563393a183.471035 167.463612 90 1 0 334.927225 0 183.471035 167.463612 90 1 0-334.927225 0Z" fill="#FBFADD" /><path d="M387.700322 655.109476l15.042923 52.755691s36.772841 8.243301 48.472779 0l8.356952-52.755691h26.743885v56.419153s46.800774 3.663462 53.486745 0 6.685971-56.419153 6.685971-56.419153h36.772842l10.028956 58.048154h45.129794v-58.048154s48.472779-9.891756 48.472779 0 0 151.673253-110.317501 85.72787l-111.988481-3.296911S345.913514 816.124658 349.256499 650.712912l38.443823 4.396564z" fill="#67DDE0" /></svg>